Coordinates
version=1
nRows=21
nColumns=22
inDegrees=yes

Units are S.I. units (second, meters, Newtons, ...)
If the header above contains a line with 'inDegrees', this indicates whether rotational values are in degrees (yes) or radians (no).

endheader
time	pelvis_tilt	pelvis_list	pelvis_rotation	pelvis_tx	pelvis_ty	pelvis_tz	hip_flexion_r	hip_adduction_r	hip_rotation_r	knee_angle_r	ankle_angle_r	subtalar_angle_r	hip_flexion_l	hip_adduction_l	hip_rotation_l	knee_angle_l	ankle_angle_l	subtalar_angle_l	lumbar_extension	lumbar_bending	lumbar_rotation
      4.96000000	     -2.34056083	      2.37179610	    -90.09469034	      0.61475601	      0.90801868	      0.39051429	     23.65698869	      7.41092232	    -14.98569321	    -23.67640891	      4.79032101	    -10.35385490	     -0.30871036	     -7.05374911	      0.81877755	    -51.52843365	    -20.86502871	      8.92829489	     -4.85918895	      3.01103329	    -13.72086717
      4.97000000	     -2.45041743	      2.31583800	    -90.60044279	      0.61339371	      0.90940243	      0.39922974	     22.76817071	      7.77538579	    -14.64096282	    -23.32047369	      5.23101350	    -10.05192474	      1.27807651	     -7.11177313	      1.66473884	    -53.74634106	    -21.58750761	      8.64299631	     -4.94496394	      3.23791428	    -13.55682309
      4.98000000	     -2.59571735	      2.21559997	    -91.19466362	      0.61188448	      0.91073166	      0.40782215	     21.83454892	      8.19906207	    -14.21323880	    -22.96484225	      5.68815532	     -9.79454221	      2.80640698	     -7.21886647	      2.36300521	    -55.82744950	    -21.69260420	      8.43662919	     -5.10027398	      3.49674611	    -13.29886106
      4.99000000	     -2.73172928	      2.17837338	    -91.85586214	      0.61025314	      0.91190309	      0.41628022	     20.95872038	      8.63057912	    -13.70079016	    -22.57595600	      6.01068123	     -9.42151153	      4.39307013	     -7.31358483	      2.98572625	    -57.75225383	    -21.23917040	      8.02513430	     -5.18472636	      3.73107454	    -12.94913472
      5.00000000	     -2.88890432	      2.06582992	    -92.62802490	      0.60838647	      0.91310199	      0.42465058	     19.99894800	      9.11292489	    -13.08428269	    -22.19271674	      6.37460935	     -9.24275537	      5.84241899	     -7.45783317	      3.47561777	    -59.47290050	    -20.34609987	      7.93301640	     -5.37225845	      3.96733629	    -12.49110602
      5.01000000	     -3.05725091	      2.01183031	    -93.46704059	      0.60631002	      0.91416582	      0.43287101	     19.08071712	      9.62966775	    -12.38514659	    -21.76218748	      6.59271513	     -9.00560860	      7.33882678	     -7.65034908	      3.88849691	    -61.01907397	    -19.21934410	      7.68832801	     -5.49663339	      4.19177436	    -11.96438289
      5.02000000	     -3.21179425	      1.93224134	    -94.40059022	      0.60399581	      0.91519593	      0.44096716	     18.13347755	     10.14591149	    -11.60885263	    -21.34775903	      6.86308661	     -8.88544339	      8.75200081	     -7.86363654	      4.21314197	    -62.34845671	    -17.90240391	      7.58980494	     -5.66068688	      4.36983870	    -11.34026968
      5.03000000	     -3.36746076	      1.86833980	    -95.39897939	      0.60145605	      0.91614727	      0.44888914	     17.18253953	     10.67943009	    -10.73322742	    -20.90387860	      7.07616339	     -8.83373821	     10.14621188	     -8.12022282	      4.48858349	    -63.47882193	    -16.51704520	      7.49753759	     -5.81735139	      4.52054837	    -10.68625823
      5.04000000	     -3.52274438	      1.81348121	    -96.45562187	      0.59871163	      0.91702673	      0.45661885	     16.22380351	     11.22138637	     -9.76556707	    -20.43979736	      7.23193146	     -8.88406062	     11.50923316	     -8.41301643	      4.73797243	    -64.40405776	    -15.09370158	      7.38119675	     -5.97729401	      4.64374906	    -10.00886753
      5.05000000	     -3.66167874	      1.77545866	    -97.56045706	      0.59580995	      0.91781419	      0.46417763	     15.28061758	     11.73557702	     -8.78568811	    -19.98669878	      7.38260706	     -8.99944463	     12.83686848	     -8.71295762	      4.98894926	    -65.11316293	    -13.57993202	      7.34149261	     -6.12343067	      4.72342796	     -9.28426321
      5.06000000	     -3.79733769	      1.74154841	    -98.70126220	      0.59277169	      0.91853840	      0.47155661	     14.32833134	     12.24077490	     -7.73649688	    -19.52279617	      7.47699039	     -9.24804224	     14.11968890	     -9.03358023	      5.24888583	    -65.61076313	    -11.99769258	      7.25035209	     -6.27231498	      4.77934514	     -8.56294928
      5.07000000	     -3.92140725	      1.70888084	    -99.86500666	      0.58965334	      0.91918817	      0.47875792	     13.39089209	     12.71167093	     -6.66535977	    -19.09668253	      7.56830115	     -9.59088083	     15.35144682	     -9.35751291	      5.53399804	    -65.89596310	    -10.30147298	      7.12219677	     -6.42637074	      4.80569955	     -7.85600096
      5.08000000	     -4.02962754	      1.68220645	   -101.03570432	      0.58648668	      0.91976558	      0.48579283	     12.47705135	     13.14202365	     -5.57330617	    -18.70814346	      7.66746507	     -9.98566420	     16.53734902	     -9.67461881	      5.85524459	    -65.96523448	     -8.50593649	      6.93771322	     -6.57753918	      4.79983951	     -7.16863077
      5.09000000	     -4.12475854	      1.65962995	   -102.21682206	      0.58328828	      0.92027529	      0.49271284	     11.59097931	     13.52960253	     -4.48391307	    -18.37476483	      7.78333821	    -10.41220423	     17.66859014	     -9.99597048	      6.18215704	    -65.82129435	     -6.65752040	      6.65533114	     -6.71844813	      4.77179297	     -6.48852732
      5.10000000	     -4.20476195	      1.65353079	   -103.41164430	      0.58005696	      0.92071499	      0.49952882	     10.74333242	     13.87751592	     -3.37452658	    -18.08802857	      7.89921122	    -10.80382836	     18.75599273	    -10.32894214	      6.49160041	    -65.46632261	     -4.85011279	      6.30460459	     -6.83154164	      4.72293940	     -5.80093280
      5.11000000	     -4.27059487	      1.64730173	   -104.61061381	      0.57683599	      0.92110455	      0.50623508	      9.93641427	     14.18227013	     -2.23256438	    -17.88289682	      8.04202377	    -11.17767637	     19.78136689	    -10.65626900	      6.79345344	    -64.90858650	     -3.12416969	      5.82730419	     -6.93926308	      4.65766359	     -5.13428291
      5.12000000	     -4.31498429	      1.62805368	   -105.79340698	      0.57368331	      0.92147594	      0.51286038	      9.16017419	     14.42774820	     -1.08123267	    -17.75464447	      8.22864966	    -11.55075712	     20.72970498	    -10.95191366	      7.09280765	    -64.14506249	     -1.49804659	      5.10573138	     -7.05283847	      4.56909103	     -4.51929795
      5.13000000	     -4.33015380	      1.64134103	   -107.00746045	      0.57053750	      0.92179042	      0.51943900	      8.43688871	     14.62782906	      0.14623568	    -17.66102500	      8.40034796	    -11.78910483	     21.63018040	    -11.23183960	      7.34062318	    -63.17746358	     -0.09080447	      4.46292138	     -7.10723733	      4.46571732	     -3.86624101
      5.14000000	     -4.32617020	      1.62400742	   -108.18493420	      0.56754557	      0.92210515	      0.52596121	      7.74644133	     14.76243550	      1.35949746	    -17.66965449	      8.63849431	    -11.99625693	     22.43454805	    -11.44358052	      7.61137289	    -62.02418292	      1.24816267	      3.59074411	     -7.18709323	      4.34648687	     -3.29230437
      5.15000000	     -4.27524875	      1.62807429	   -109.38177585	      0.56460519	      0.92238438	      0.53248089	      7.09573540	     14.83104417	      2.64354210	    -17.68947996	      8.88482503	    -12.09149083	     23.17897427	    -11.59456119	      7.84334378	    -60.67716473	      2.35017254	      2.86384246	     -7.20484062	      4.19547660	     -2.68897393
      5.16000000	     -4.19891499	      1.60700302	   -110.54672704	      0.56183923	      0.92266421	      0.53898335	      6.47037485	     14.83203540	      3.92570225	    -17.77400375	      9.18198335	    -12.13469126	     23.82949554	    -11.65766158	      8.09925336	    -59.15720122	      3.36038055	      2.05845860	     -7.23134507	      4.03310758	     -2.16261234
